<svg width="145" height="96" viewBox="0 0 145 96" fill="none" xmlns="http://www.w3.org/2000/svg">
<circle cx="70.5" cy="40.5" r="40.5" fill="white"/>
<circle cx="70.5" cy="40.5" r="38.5" fill="#1D071D"/>
<circle cx="70.5" cy="40.5" r="35.5" fill="white"/>
<path d="M0.173384 78.7771L15.0198 64.5116L15.0478 93.0134L0.173384 78.7771Z" fill="white"/>
<path d="M144.826 78.7668L129.955 64.5023L129.983 93.0604L144.826 78.7668Z" fill="white"/>
<rect x="15" y="64" width="115" height="29" fill="white"/>
<rect x="41" y="23" width="4" height="32" rx="2" fill="#1D071D"/>
<rect x="52" y="18" width="4" height="43" rx="2" fill="#1D071D"/>
<rect x="63" y="22" width="4" height="34" rx="2" fill="#1D071D"/>
<rect x="73" y="28" width="4" height="23" rx="2" fill="#1D071D"/>
<rect x="84" y="15" width="4" height="48" rx="2" fill="#1D071D"/>
<rect x="96" y="23" width="4" height="32" rx="2" fill="#1D071D"/>
<path d="M15 64L130 64" stroke="#1D071D"/>
<path d="M28.1413 88V70.5455H35.3516C36.6584 70.5455 37.7862 70.7812 38.7351 71.2528C39.6896 71.7187 40.4254 72.3892 40.9425 73.2642C41.4595 74.1335 41.718 75.1648 41.718 76.358C41.718 77.5682 41.4538 78.5966 40.9254 79.4432C40.397 80.2841 39.647 80.9261 38.6754 81.3693C37.7038 81.8068 36.5533 82.0256 35.2237 82.0256H30.6641V78.7017H34.4396C35.076 78.7017 35.6072 78.6193 36.0334 78.4545C36.4652 78.2841 36.7919 78.0284 37.0135 77.6875C37.2351 77.3409 37.3459 76.8977 37.3459 76.358C37.3459 75.8182 37.2351 75.3722 37.0135 75.0199C36.7919 74.6619 36.4652 74.3949 36.0334 74.2188C35.6016 74.0369 35.0703 73.946 34.4396 73.946H32.3601V88H28.1413ZM37.968 80.0227L42.3146 88H37.7124L33.451 80.0227H37.968ZM47.8075 88H43.2734L49.1626 70.5455H54.7791L60.6683 88H56.1342L52.0348 74.9432H51.8984L47.8075 88ZM47.2024 81.1307H56.6797V84.3352H47.2024V81.1307ZM62.5476 88V70.5455H74.718V73.9716H66.7663V77.5511H74.0959V80.9858H66.7663V84.5739H74.718V88H62.5476ZM77.3601 88V70.5455H81.5788V84.5739H88.8402V88H77.3601ZM91.0241 88V70.5455H95.2429V84.5739H102.504V88H91.0241ZM104.688 88V70.5455H116.859V73.9716H108.907V77.5511H116.237V80.9858H108.907V84.5739H116.859V88H104.688Z" fill="#1D071D"/>
</svg>
